<svg width="48" height="48" viewBox="0 0 48 48" fill="none" xmlns="http://www.w3.org/2000/svg">
<style>
  @media (prefers-color-scheme: dark) {
    #background { visibility: hidden; }
  }
</style>
<rect id="background" width="48" height="48" rx="9" fill="#050505"/>
<path id="beaker_fill" d="M10.1367 35.7597L10.0335 30L10 27.5V25.5V23.5V21L10.0335 18.5L10.0585 16.1752L10.1 14L10.1335 9.6009C10.1335 9.6009 13.7489 6.78321 23.2549 6.58619C32.7609 6.38917 37.9021 9.30006 37.9021 9.30006C37.9021 9.30006 40.9121 9.38876 41.3311 9.34441C41.75 9.30006 41.0356 10.034 41.0356 10.034L38.0311 12.7429L38.0058 36.7271C38.0058 36.7271 32.0252 38.5841 24.7123 38.5841C17.3993 38.5841 10.5905 36.3727 10.5905 36.3727L10.1367 35.7597Z" fill="#FAFAFA"/>
<path id="beaker_outline" class="outline" d="M10 27.5L10.0335 30M10 27.5C10 27.5 12.5 28 14.1 27.5M10 27.5V25.5M10.0335 30L10.1367 35.7597L10.5905 36.3727C10.5905 36.3727 17.3993 38.5841 24.7123 38.5841C32.0252 38.5841 38.0058 36.7271 38.0058 36.7271L38.0311 12.7429L41.0356 10.034C41.0356 10.034 41.75 9.30006 41.3311 9.34441C40.9121 9.38876 37.9021 9.30006 37.9021 9.30006C37.9021 9.30006 32.7609 6.38917 23.2549 6.58619C13.7489 6.78321 10.1335 9.6009 10.1335 9.6009L10.1 14M10.0335 30C10.0335 30 11.5 30.5 12.2 30.3M10 25.5C10 25.5 11.619 25.4 12.4 25.4M10 25.5V23.5M10.0335 18.5L10 21M10.0335 18.5C11.5 18 12.4 17.5 14 17.5M10.0335 18.5L10.0585 16.1752M10 23.5C10 23.5 12.4 22.6 14.1 22.6M10 23.5V21M10 21C10 21 11.5 20.3 12.4 20.3M12.1 15.4C12.1 15.4 11 15.5 10.0585 16.1752M10.0585 16.1752L10.1 14M10.1 14C10.1 14 11.1837 13.4169 11.8781 13.1715C12.5725 12.926 13.6562 12.7429 13.6562 12.7429" stroke="black" stroke-linecap="round" stroke-linejoin="round"/>
<path class="face" d="M28.7957 21.6598C27.5634 24.3401 23.6611 24.3612 22.165 21.7698" stroke="black" stroke-width="1.14049" stroke-linecap="round"/>
<path class="face" d="M32.3114 20.6023C33.8194 20.6023 35.0418 19.3798 35.0418 17.8718C35.0418 16.3638 33.8194 15.1413 32.3114 15.1413C30.8034 15.1413 29.5809 16.3638 29.5809 17.8718C29.5809 19.3798 30.8034 20.6023 32.3114 20.6023Z" fill="black"/>
<path class="face" d="M18.0841 20.5736C19.5921 20.5736 20.8146 19.3511 20.8146 17.8431C20.8146 16.3351 19.5921 15.1126 18.0841 15.1126C16.5761 15.1126 15.3536 16.3351 15.3536 17.8431C15.3536 19.3511 16.5761 20.5736 18.0841 20.5736Z" fill="black"/>
<path class="tentacle" d="M10.1729 27.7685C6.45259 28.8332 3.27341 28.8739 2.17292 24.635C1.07244 20.3961 5.5559 16.4017 6.28956 15.5458C7.02322 14.6899 7.67536 12.9372 6.90094 9.75805C6.12653 6.57886 4.863 5.07079 3.681 4.54093C2.49899 4.01106 4.12934 4.21486 5.14831 4.50016C6.16728 4.78548 10.3247 7.59783 10.9361 10.9401C11.5474 14.2823 11.3029 15.5865 9.75405 18.2359C8.20522 20.8852 7.75688 21.7004 8.57205 22.3525C9.38723 23.0046 9.75405 23 9.75405 23V27.5L10.1729 27.7685Z" fill="#EBA62D"/>
<path class="tentacle" d="M38.5 26.5C38.5 26.5 45.787 26.5356 45.787 33.1065C45.787 39.6774 42.7779 39.4931 39.4617 40.5985C36.1455 41.7039 33.9962 36.9139 33.5049 36.177C33.0136 35.4401 32.2767 33.8434 30.373 34.7031C28.4693 35.5629 27.4867 37.5894 27.3025 38.2035C27.1182 38.8176 26.5655 39.0633 26.5655 38.1421C26.5655 37.221 26.5655 33.3521 28.2236 31.8783C29.8817 30.4044 31.724 30.4658 32.8294 30.8957C33.9348 31.3256 35.9907 33.8224 37.3123 34.9488C38.634 36.0751 40.1986 34.826 39.953 34.2119C39.7073 33.5978 38.5 32.5 38.5 32.5V26.5Z" fill="#931621"/>
<path class="tentacle" d="M33.7519 7.53839C40.9054 3.28478 44.5239 6.90329 45.2778 7.90843C46.0316 8.91357 47.3383 10.371 45.4788 13.1854C43.6193 15.9998 41.7598 17.8593 42.5639 19.6183C43.368 21.3773 44.4737 21.9804 45.7804 21.4275C47.087 20.8747 47.2378 21.0255 46.3834 22.1311C45.5291 23.2368 43.8203 24.7948 42.0613 24.1414C40.3023 23.4881 38.6439 21.1763 38.4931 20.1711C38.3423 19.166 38.5 14.5 38.5 14.5C38.5 14.5 38.4112 13.269 38.4931 13C38.575 12.731 38.7427 12.7923 39 12.5C39.2573 12.2077 41.348 9.90928 41.5 9.5C41.652 9.09071 41.9964 8.94558 41.552 8.9105C41.1077 8.87541 38 8.9105 38 8.9105C38 8.9105 36.0091 7.86975 34.3837 7.56571C32.7582 7.26167 33.7519 7.53839 33.7519 7.53839Z" fill="#138086"/>
<path class="tentacle" d="M9.5 28C9.5 28 2.37088 29.0544 2.34194 34.9306C2.31299 40.8067 4.4261 43.2672 8.30497 44.1356C12.1838 45.004 15.5995 43.6725 19.681 42.2541C23.7625 40.8357 28.2493 44.0198 28.5677 44.5119C28.8861 45.004 29.6098 45.2356 28.6256 43.4409C27.6414 41.6462 24.8046 38.5489 19.9416 39.0699C15.0785 39.591 14.2391 41.1541 11.8944 40.112C9.54968 39.0699 8.04445 38.1437 8.24707 36.6963C8.4497 35.249 8.47865 34.67 8.97074 34.5253C9.46284 34.3806 9.7 34 9.7 34V29L9.5 28Z" fill="#DC4904"/>
<path class="outline" d="M33.7519 7.53839C38.5177 4.88901 42.7837 5.00336 44.9651 7.51201C47.1466 10.0206 46.2041 12.2132 45.0918 13.7713C43.7443 15.6588 41.8847 17.3583 42.4846 19.7579C43.0845 22.1574 46.3021 21.6666 46.7929 20.6304C47.2837 19.5943 46.8475 21.6666 46.193 22.321C45.5386 22.9754 44.1752 25.1569 41.1212 23.5753C38.0673 21.9938 37.4128 16.7039 39.7033 13.5408" stroke="black" stroke-width="0.972781" stroke-linecap="round"/>
<path class="outline" d="M38.5581 26.6293C44.9387 27.011 45.8658 30.6104 45.8658 33.5553C45.8658 36.5002 45.2597 38.0705 43.2964 39.1612C41.3332 40.2519 36.813 42.0083 34.7406 38.4089C32.6683 34.8096 32.4501 34.2097 30.705 34.5915C28.9599 34.9732 27.7601 36.7183 27.1602 38.7362C26.5603 40.754 26.3422 37.2092 26.6148 35.6822C26.8875 34.1552 27.7601 30.8831 31.3049 30.5558C34.8497 30.2286 35.9952 35.2962 38.4409 35.4099C40.8866 35.5237 39.8054 32.5425 38.5825 32.8269" stroke="black" stroke-width="0.972781" stroke-linecap="round"/>
<path class="outline" d="M10 28.5C3.95638 29.0556 2.03977 32.8064 2.23121 36.9622C2.53314 43.5167 9.86275 45.4524 14.4991 44.0786C19.1355 42.7049 19.9082 41.3598 24.4301 42.3614C28.952 43.3631 29.5816 47.1981 29.2382 45.1662C28.8947 43.1342 27.1776 40.1864 22.3695 39.2992C17.5614 38.412 15.5867 41.3598 11.4654 39.9574C7.34423 38.555 8.3173 35.9793 8.43177 35.55C8.54625 35.1207 8.91246 34.2138 10 34.5" stroke="black" stroke-width="0.972781" stroke-linecap="round"/>
<path class="outline" d="M10 27.5C5.70154 29.2695 1.65664 27.907 2.08882 22.7995C2.521 17.6919 6.73897 16.3353 7.03733 13.9386C7.56473 9.702 6.13369 6.00226 3.93351 4.86288C1.73334 3.72351 1.69405 3.99853 3.6585 4.11639C5.62294 4.23426 9.2768 6.08084 10.6912 10.2455C12.1056 14.4101 10.0233 17.7496 9.31608 18.8104C8.60888 19.8712 7.66595 21.4428 8.64817 22.3857C9.63039 23.3286 10 22.5 10 22.5" stroke="black" stroke-width="0.972781" stroke-linecap="round"/>
</svg>